<svg width="205" height="50" viewBox="0 0 205 50" fill="none" xmlns="http://www.w3.org/2000/svg">
<path opacity="0.4" d="M44 33V39C44 42 42 44 39 44H12C12.82 44 13.66 43.88 14.44 43.62C14.66 43.54 14.88 43.46 15.1 43.36C15.8 43.08 16.48 42.68 17.08 42.16C17.26 42.02 17.46 41.84 17.64 41.66L17.72 41.58L31.32 28H39C42 28 44 30 44 33Z" fill="white"/>
<path opacity="0.6" d="M36.74 22.5799L31.32 27.9999L17.72 41.5799C19.12 40.1399 20 38.1599 20 35.9999V16.6799L25.42 11.2599C27.54 9.13992 30.38 9.13992 32.5 11.2599L36.74 15.4999C38.86 17.6199 38.86 20.4599 36.74 22.5799Z" fill="white"/>
<path d="M15 4H9C6 4 4 6 4 9V36C4 36.54 4.05997 37.08 4.15997 37.6C4.21997 37.86 4.27999 38.12 4.35999 38.38C4.45999 38.68 4.55999 38.98 4.67999 39.26C4.69999 39.28 4.70001 39.3 4.70001 39.3C4.72001 39.3 4.72001 39.3 4.70001 39.32C4.98001 39.88 5.29999 40.42 5.67999 40.92C5.89999 41.18 6.12003 41.42 6.34003 41.66C6.56003 41.9 6.8 42.1 7.06 42.3L7.08002 42.32C7.58002 42.7 8.11999 43.02 8.67999 43.3C8.69999 43.28 8.70001 43.28 8.70001 43.3C9.00001 43.44 9.29999 43.54 9.62 43.64C9.88 43.72 10.14 43.78 10.4 43.84C10.92 43.94 11.46 44 12 44C12.82 44 13.66 43.88 14.44 43.62C14.66 43.54 14.88 43.46 15.1 43.36C15.8 43.08 16.48 42.68 17.08 42.16C17.26 42.02 17.46 41.84 17.64 41.66L17.72 41.58C19.12 40.14 20 38.16 20 36V9C20 6 18 4 15 4ZM12 39C10.34 39 9 37.66 9 36C9 34.34 10.34 33 12 33C13.66 33 15 34.34 15 36C15 37.66 13.66 39 12 39Z" fill="white"/>
<path d="M69.72 15.842C69.72 16.5753 69.7493 17.1547 69.808 17.58C69.8667 18.0053 69.9767 18.3353 70.138 18.57C70.314 18.8047 70.556 18.9587 70.864 19.032C71.1867 19.1053 71.6047 19.1493 72.118 19.164V20H64.99V19.164C65.5033 19.1493 65.914 19.1053 66.222 19.032C66.5447 18.944 66.794 18.79 66.97 18.57C67.146 18.35 67.2633 18.042 67.322 17.646C67.3807 17.2353 67.41 16.6853 67.41 15.996V7.064C67.41 6.448 67.3807 5.942 67.322 5.546C67.278 5.13533 67.1753 4.81267 67.014 4.578C66.8673 4.34333 66.6473 4.182 66.354 4.094C66.0607 3.99133 65.6793 3.92533 65.21 3.896V3.06H71.898V3.896C71.4287 3.91067 71.0473 3.96933 70.754 4.072C70.4753 4.17467 70.2553 4.35067 70.094 4.6C69.9473 4.83467 69.8447 5.16467 69.786 5.59C69.742 6.01533 69.72 6.558 69.72 7.218V15.842ZM77.8829 16.546C77.8829 17.1473 77.8975 17.624 77.9269 17.976C77.9562 18.3133 78.0295 18.5773 78.1469 18.768C78.2789 18.944 78.4622 19.0613 78.6969 19.12C78.9462 19.1787 79.2835 19.2227 79.7089 19.252V20H73.9449V19.252C74.3555 19.2227 74.6782 19.1787 74.9129 19.12C75.1622 19.0613 75.3529 18.944 75.4849 18.768C75.6169 18.592 75.6975 18.3427 75.7269 18.02C75.7709 17.6973 75.7929 17.2573 75.7929 16.7V13.774C75.7929 12.0287 75.7489 10.9653 75.6609 10.584C75.6169 10.3933 75.5582 10.2393 75.4849 10.122C75.4262 9.99 75.3309 9.89467 75.1989 9.836C75.0669 9.76267 74.8982 9.71867 74.6929 9.704C74.4875 9.67467 74.2235 9.66 73.9009 9.66V8.956L77.4209 8.12L77.6849 10.298H77.7729C78.3302 9.60867 78.9829 9.07333 79.7309 8.692C80.4789 8.31067 81.2929 8.12 82.1729 8.12C82.8475 8.12 83.4635 8.23 84.0209 8.45C84.5782 8.67 85.0035 8.97067 85.2969 9.352C85.5462 9.68933 85.7222 10.1293 85.8249 10.672C85.9275 11.2 85.9789 11.9333 85.9789 12.872V16.546C85.9789 17.1473 85.9935 17.624 86.0229 17.976C86.0669 18.3133 86.1475 18.5773 86.2649 18.768C86.3822 18.944 86.5582 19.0613 86.7929 19.12C87.0422 19.1787 87.3649 19.2227 87.7609 19.252V20H82.0629V19.252C82.4735 19.2373 82.7962 19.2007 83.0309 19.142C83.2802 19.0687 83.4635 18.944 83.5809 18.768C83.7129 18.592 83.7935 18.3427 83.8229 18.02C83.8669 17.6827 83.8889 17.2427 83.8889 16.7V13.796C83.8889 12.96 83.8449 12.256 83.7569 11.684C83.6689 11.112 83.5222 10.65 83.3169 10.298C83.1262 9.946 82.8695 9.69667 82.5469 9.55C82.2242 9.38867 81.8355 9.308 81.3809 9.308C80.7209 9.308 80.1122 9.484 79.5549 9.836C79.0122 10.1733 78.5869 10.6427 78.2789 11.244C78.2055 11.3907 78.1395 11.53 78.0809 11.662C78.0369 11.794 78.0002 11.948 77.9709 12.124C77.9415 12.3 77.9195 12.5053 77.9049 12.74C77.8902 12.96 77.8829 13.246 77.8829 13.598V16.546ZM89.1788 9.726V8.912C89.9562 8.45733 90.5648 8.00267 91.0048 7.548C91.4448 7.09333 91.7822 6.55067 92.0168 5.92H92.6548V8.692H95.6028V9.726H92.6548V16.414C92.6548 16.9273 92.6768 17.36 92.7208 17.712C92.7795 18.064 92.8675 18.35 92.9848 18.57C93.1022 18.7753 93.2562 18.922 93.4468 19.01C93.6375 19.098 93.8795 19.142 94.1728 19.142C94.5395 19.142 94.8475 19.0687 95.0968 18.922C95.3608 18.7607 95.6175 18.4967 95.8668 18.13L96.4168 18.548C96.2115 19.0907 95.8522 19.5087 95.3388 19.802C94.8402 20.0807 94.2168 20.22 93.4688 20.22C92.5008 20.22 91.7602 19.9927 91.2468 19.538C90.7482 19.0687 90.4988 18.4013 90.4988 17.536V9.726H89.1788ZM108.097 17.954C106.851 19.4647 105.303 20.22 103.455 20.22C102.59 20.22 101.805 20.0807 101.101 19.802C100.397 19.5087 99.7886 19.1053 99.2753 18.592C98.7766 18.064 98.3879 17.4407 98.1093 16.722C97.8306 15.9887 97.6913 15.182 97.6913 14.302C97.6913 13.4073 97.8379 12.5787 98.1313 11.816C98.4246 11.0533 98.8353 10.4007 99.3633 9.858C99.9059 9.31533 100.544 8.89 101.277 8.582C102.025 8.274 102.839 8.12 103.719 8.12C105.142 8.12 106.242 8.50867 107.019 9.286C107.797 10.0487 108.185 11.1487 108.185 12.586C108.185 12.7913 108.141 12.916 108.053 12.96C107.98 13.004 107.797 13.026 107.503 13.026H100.265C100.236 13.1433 100.214 13.29 100.199 13.466C100.185 13.6273 100.177 13.8107 100.177 14.016C100.177 14.7787 100.265 15.4753 100.441 16.106C100.632 16.722 100.896 17.25 101.233 17.69C101.585 18.13 101.996 18.4747 102.465 18.724C102.949 18.9587 103.485 19.076 104.071 19.076C104.687 19.076 105.259 18.944 105.787 18.68C106.315 18.4013 106.858 17.954 107.415 17.338L108.097 17.954ZM104.467 12.014C104.761 12.014 104.995 12.0067 105.171 11.992C105.347 11.9773 105.479 11.948 105.567 11.904C105.655 11.86 105.714 11.8013 105.743 11.728C105.773 11.64 105.787 11.53 105.787 11.398C105.787 10.7233 105.567 10.188 105.127 9.792C104.702 9.38133 104.115 9.176 103.367 9.176C101.783 9.176 100.801 10.122 100.419 12.014H104.467ZM114.109 16.502C114.109 17.1033 114.123 17.58 114.153 17.932C114.182 18.284 114.255 18.5553 114.373 18.746C114.505 18.922 114.688 19.0393 114.923 19.098C115.157 19.1567 115.487 19.2007 115.913 19.23V20H110.061V19.23C110.486 19.2153 110.823 19.1787 111.073 19.12C111.322 19.0467 111.513 18.922 111.645 18.746C111.777 18.57 111.857 18.3207 111.887 17.998C111.931 17.6607 111.953 17.2133 111.953 16.656V14.082C111.953 13.0847 111.938 12.3073 111.909 11.75C111.894 11.1927 111.821 10.782 111.689 10.518C111.571 10.254 111.381 10.1 111.117 10.056C110.853 9.99733 110.486 9.968 110.017 9.968V9.198L113.867 8.362L114.175 11.09H114.263C114.453 10.65 114.688 10.2467 114.967 9.88C115.26 9.51333 115.575 9.20533 115.913 8.956C116.25 8.692 116.602 8.48667 116.969 8.34C117.335 8.19333 117.709 8.12 118.091 8.12C118.56 8.12 118.927 8.23733 119.191 8.472C119.469 8.692 119.609 8.99267 119.609 9.374C119.609 9.726 119.499 10.0047 119.279 10.21C119.059 10.4007 118.743 10.496 118.333 10.496C118.098 10.496 117.9 10.4667 117.739 10.408C117.577 10.3493 117.431 10.2907 117.299 10.232C117.181 10.1587 117.064 10.0927 116.947 10.034C116.844 9.97533 116.727 9.946 116.595 9.946C116.199 9.946 115.803 10.2027 115.407 10.716C115.011 11.2147 114.703 11.8527 114.483 12.63C114.365 13.0553 114.27 13.5393 114.197 14.082C114.138 14.61 114.109 15.1673 114.109 15.754V16.502ZM124.725 16.502C124.725 17.074 124.747 17.536 124.791 17.888C124.85 18.2253 124.952 18.4967 125.099 18.702C125.246 18.8927 125.451 19.0247 125.715 19.098C125.979 19.1713 126.331 19.2153 126.771 19.23V20H120.457V19.23C120.897 19.2153 121.256 19.1713 121.535 19.098C121.814 19.01 122.026 18.878 122.173 18.702C122.334 18.5113 122.437 18.2547 122.481 17.932C122.54 17.5947 122.569 17.1693 122.569 16.656V13.84C122.569 12.9893 122.554 12.2927 122.525 11.75C122.51 11.1927 122.474 10.8113 122.415 10.606C122.342 10.2687 122.173 10.0413 121.909 9.924C121.645 9.792 121.146 9.726 120.413 9.726V8.956L124.725 8.12V16.502ZM122.195 3.654C122.195 3.27267 122.327 2.95 122.591 2.686C122.855 2.422 123.178 2.29 123.559 2.29C123.94 2.29 124.263 2.422 124.527 2.686C124.791 2.95 124.923 3.27267 124.923 3.654C124.923 4.03533 124.791 4.358 124.527 4.622C124.263 4.886 123.94 5.018 123.559 5.018C123.178 5.018 122.855 4.886 122.591 4.622C122.327 4.358 122.195 4.03533 122.195 3.654ZM134.357 8.12C135.193 8.12 135.985 8.274 136.733 8.582C137.481 8.87533 138.134 9.286 138.691 9.814C139.263 10.342 139.71 10.9727 140.033 11.706C140.37 12.4247 140.539 13.2167 140.539 14.082C140.539 14.9767 140.37 15.798 140.033 16.546C139.71 17.294 139.263 17.9393 138.691 18.482C138.134 19.0247 137.481 19.45 136.733 19.758C135.985 20.066 135.193 20.22 134.357 20.22C133.536 20.22 132.751 20.0733 132.003 19.78C131.27 19.472 130.624 19.0467 130.067 18.504C129.51 17.9613 129.07 17.316 128.747 16.568C128.424 15.8053 128.263 14.9767 128.263 14.082C128.263 13.2167 128.424 12.4173 128.747 11.684C129.07 10.9507 129.51 10.32 130.067 9.792C130.624 9.264 131.27 8.85333 132.003 8.56C132.751 8.26667 133.536 8.12 134.357 8.12ZM134.357 9.176C133.814 9.176 133.316 9.29333 132.861 9.528C132.421 9.76267 132.04 10.1 131.717 10.54C131.409 10.9653 131.167 11.486 130.991 12.102C130.83 12.7033 130.749 13.3707 130.749 14.104C130.749 14.8667 130.83 15.556 130.991 16.172C131.167 16.788 131.409 17.316 131.717 17.756C132.04 18.1813 132.421 18.5113 132.861 18.746C133.301 18.9807 133.8 19.098 134.357 19.098C134.914 19.098 135.42 18.9807 135.875 18.746C136.33 18.5113 136.718 18.174 137.041 17.734C137.364 17.294 137.613 16.766 137.789 16.15C137.965 15.534 138.053 14.852 138.053 14.104C138.053 13.3707 137.965 12.7033 137.789 12.102C137.613 11.5007 137.364 10.9873 137.041 10.562C136.718 10.122 136.33 9.78467 135.875 9.55C135.42 9.30067 134.914 9.176 134.357 9.176ZM146.486 16.502C146.486 17.1033 146.5 17.58 146.53 17.932C146.559 18.284 146.632 18.5553 146.75 18.746C146.882 18.922 147.065 19.0393 147.3 19.098C147.534 19.1567 147.864 19.2007 148.29 19.23V20H142.438V19.23C142.863 19.2153 143.2 19.1787 143.45 19.12C143.699 19.0467 143.89 18.922 144.022 18.746C144.154 18.57 144.234 18.3207 144.264 17.998C144.308 17.6607 144.33 17.2133 144.33 16.656V14.082C144.33 13.0847 144.315 12.3073 144.286 11.75C144.271 11.1927 144.198 10.782 144.066 10.518C143.948 10.254 143.758 10.1 143.494 10.056C143.23 9.99733 142.863 9.968 142.394 9.968V9.198L146.244 8.362L146.552 11.09H146.64C146.83 10.65 147.065 10.2467 147.344 9.88C147.637 9.51333 147.952 9.20533 148.29 8.956C148.627 8.692 148.979 8.48667 149.346 8.34C149.712 8.19333 150.086 8.12 150.468 8.12C150.937 8.12 151.304 8.23733 151.568 8.472C151.846 8.692 151.986 8.99267 151.986 9.374C151.986 9.726 151.876 10.0047 151.656 10.21C151.436 10.4007 151.12 10.496 150.71 10.496C150.475 10.496 150.277 10.4667 150.116 10.408C149.954 10.3493 149.808 10.2907 149.676 10.232C149.558 10.1587 149.441 10.0927 149.324 10.034C149.221 9.97533 149.104 9.946 148.972 9.946C148.576 9.946 148.18 10.2027 147.784 10.716C147.388 11.2147 147.08 11.8527 146.86 12.63C146.742 13.0553 146.647 13.5393 146.574 14.082C146.515 14.61 146.486 15.1673 146.486 15.754V16.502ZM153.978 20H153.494V16.216H154.044C154.616 18.284 155.657 19.318 157.168 19.318C157.755 19.318 158.217 19.1787 158.554 18.9C158.906 18.6067 159.082 18.1667 159.082 17.58C159.082 17.36 159.045 17.1767 158.972 17.03C158.913 16.8687 158.789 16.7073 158.598 16.546C158.422 16.37 158.165 16.172 157.828 15.952C157.505 15.732 157.073 15.4533 156.53 15.116C156.031 14.808 155.599 14.522 155.232 14.258C154.865 13.994 154.557 13.73 154.308 13.466C154.059 13.1873 153.868 12.894 153.736 12.586C153.619 12.278 153.56 11.9187 153.56 11.508C153.56 11.0093 153.641 10.5547 153.802 10.144C153.978 9.71867 154.213 9.35933 154.506 9.066C154.799 8.77267 155.144 8.54533 155.54 8.384C155.936 8.208 156.369 8.12 156.838 8.12C157.234 8.12 157.645 8.186 158.07 8.318C158.495 8.43533 158.869 8.59667 159.192 8.802L159.632 8.34H160.05V11.508H159.478C159.155 10.6133 158.803 9.97533 158.422 9.594C158.041 9.21267 157.571 9.022 157.014 9.022C156.515 9.022 156.112 9.154 155.804 9.418C155.511 9.682 155.364 10.0487 155.364 10.518C155.364 10.7673 155.401 10.9873 155.474 11.178C155.562 11.354 155.694 11.53 155.87 11.706C156.046 11.882 156.266 12.0653 156.53 12.256C156.809 12.432 157.139 12.6373 157.52 12.872C158.151 13.268 158.686 13.62 159.126 13.928C159.581 14.236 159.947 14.544 160.226 14.852C160.505 15.1453 160.71 15.4533 160.842 15.776C160.974 16.0987 161.04 16.4653 161.04 16.876C161.04 17.9173 160.703 18.7387 160.028 19.34C159.353 19.9267 158.466 20.22 157.366 20.22C156.222 20.22 155.239 19.89 154.418 19.23L153.978 20ZM68.158 39.402C68.158 39.9593 68.2387 40.4727 68.4 40.942C68.5613 41.3967 68.7813 41.7927 69.06 42.13C69.3533 42.4527 69.698 42.7093 70.094 42.9C70.5047 43.0907 70.9447 43.186 71.414 43.186C71.9273 43.186 72.3893 43.0687 72.8 42.834C73.2253 42.5993 73.5847 42.2693 73.878 41.844C74.186 41.404 74.4207 40.8833 74.582 40.282C74.758 39.666 74.846 38.984 74.846 38.236C74.846 37.488 74.758 36.806 74.582 36.19C74.406 35.5593 74.164 35.024 73.856 34.584C73.548 34.1293 73.174 33.7773 72.734 33.528C72.3087 33.2787 71.8393 33.154 71.326 33.154C70.7247 33.154 70.1893 33.3007 69.72 33.594C69.2507 33.8727 68.8913 34.2687 68.642 34.782C68.3193 35.4273 68.158 36.3147 68.158 37.444V39.402ZM68.114 33.902H68.202C68.6713 33.286 69.1847 32.8387 69.742 32.56C70.314 32.2667 70.974 32.12 71.722 32.12C72.514 32.12 73.2473 32.274 73.922 32.582C74.6113 32.89 75.2053 33.3153 75.704 33.858C76.2173 34.4007 76.6133 35.046 76.892 35.794C77.1853 36.5273 77.332 37.3193 77.332 38.17C77.332 39.0353 77.1853 39.842 76.892 40.59C76.5987 41.3233 76.1953 41.9613 75.682 42.504C75.1833 43.0467 74.5893 43.472 73.9 43.78C73.2107 44.088 72.4627 44.242 71.656 44.242C70.82 44.242 70.0353 44.088 69.302 43.78C68.5833 43.472 67.9893 43.054 67.52 42.526L66.486 44H66.002V30.712C66.002 29.2307 65.9067 28.2847 65.716 27.874C65.672 27.7713 65.6207 27.6907 65.562 27.632C65.5033 27.5587 65.4153 27.5 65.298 27.456C65.1807 27.3973 65.0193 27.346 64.814 27.302C64.6087 27.258 64.33 27.214 63.978 27.17V26.62L68.114 25.74V33.902ZM84.1898 47.454C83.5151 48.9647 82.4665 49.72 81.0438 49.72C80.1198 49.72 79.6578 49.3753 79.6578 48.686C79.6578 48.3193 79.7825 48.048 80.0318 47.872C80.2958 47.7107 80.7725 47.5713 81.4618 47.454C81.7698 47.41 82.0338 47.344 82.2538 47.256C82.4738 47.1827 82.6718 47.08 82.8478 46.948C83.0238 46.8307 83.1778 46.6767 83.3098 46.486C83.4565 46.2953 83.5958 46.0607 83.7278 45.782L84.4978 44.242L80.2738 35.068C80.0831 34.6573 79.9145 34.3347 79.7678 34.1C79.6358 33.8507 79.4891 33.66 79.3278 33.528C79.1811 33.3813 79.0125 33.286 78.8218 33.242C78.6311 33.1833 78.3891 33.1393 78.0958 33.11V32.34H83.9258V33.11C82.9431 33.11 82.4518 33.352 82.4518 33.836C82.4518 34.0267 82.5105 34.3273 82.6278 34.738C82.7451 35.1487 82.8918 35.5667 83.0678 35.992L85.4878 41.844H85.5978L87.5998 36.894C87.7905 36.41 87.9445 36.014 88.0618 35.706C88.1938 35.398 88.2891 35.1487 88.3478 34.958C88.4211 34.7527 88.4651 34.584 88.4798 34.452C88.5091 34.32 88.5238 34.1953 88.5238 34.078C88.5238 33.6967 88.4138 33.44 88.1938 33.308C87.9885 33.176 87.5851 33.11 86.9838 33.11V32.34H91.8238V33.11C91.5451 33.11 91.3105 33.1467 91.1198 33.22C90.9291 33.2933 90.7311 33.462 90.5258 33.726C90.3351 33.9753 90.1151 34.342 89.8658 34.826C89.6311 35.31 89.3378 35.9627 88.9858 36.784L84.1898 47.454ZM108.357 42.152H108.269C107.741 42.9 107.176 43.4353 106.575 43.758C105.988 44.066 105.292 44.22 104.485 44.22C103.649 44.22 102.879 44.0733 102.175 43.78C101.486 43.472 100.884 43.054 100.371 42.526C99.8723 41.9833 99.4763 41.338 99.183 40.59C98.9043 39.842 98.765 39.028 98.765 38.148C98.765 37.2827 98.9043 36.4833 99.183 35.75C99.4763 35.002 99.8723 34.364 100.371 33.836C100.884 33.2933 101.493 32.8753 102.197 32.582C102.901 32.274 103.664 32.12 104.485 32.12C105.189 32.12 105.812 32.2373 106.355 32.472C106.912 32.7067 107.448 33.0807 107.961 33.594V31.35C107.961 30.514 107.946 29.8173 107.917 29.26C107.902 28.7027 107.873 28.3213 107.829 28.116C107.756 27.7933 107.55 27.566 107.213 27.434C106.876 27.302 106.326 27.236 105.563 27.236V26.576L110.073 25.74V38.434C110.073 39.446 110.08 40.282 110.095 40.942C110.11 41.5873 110.154 42.0493 110.227 42.328C110.271 42.504 110.322 42.6507 110.381 42.768C110.454 42.8853 110.55 42.9807 110.667 43.054C110.799 43.1127 110.968 43.1567 111.173 43.186C111.393 43.2153 111.672 43.23 112.009 43.23V43.978L108.357 44.22V42.152ZM107.917 37.29C107.917 36.5273 107.873 35.948 107.785 35.552C107.712 35.156 107.558 34.8113 107.323 34.518C106.986 34.078 106.553 33.748 106.025 33.528C105.512 33.2933 104.998 33.176 104.485 33.176C103.429 33.176 102.622 33.616 102.065 34.496C101.522 35.3613 101.251 36.542 101.251 38.038C101.251 38.8153 101.317 39.5193 101.449 40.15C101.596 40.7807 101.801 41.3233 102.065 41.778C102.344 42.218 102.681 42.5627 103.077 42.812C103.488 43.0467 103.957 43.164 104.485 43.164C104.749 43.164 105.013 43.1347 105.277 43.076C105.556 43.0173 105.82 42.9293 106.069 42.812C106.333 42.68 106.575 42.5333 106.795 42.372C107.015 42.196 107.198 41.998 107.345 41.778C107.55 41.4553 107.697 41.0667 107.785 40.612C107.873 40.1573 107.917 39.534 107.917 38.742V37.29ZM124.039 41.954C122.792 43.4647 121.245 44.22 119.397 44.22C118.531 44.22 117.747 44.0807 117.043 43.802C116.339 43.5087 115.73 43.1053 115.217 42.592C114.718 42.064 114.329 41.4407 114.051 40.722C113.772 39.9887 113.633 39.182 113.633 38.302C113.633 37.4073 113.779 36.5787 114.073 35.816C114.366 35.0533 114.777 34.4007 115.305 33.858C115.847 33.3153 116.485 32.89 117.219 32.582C117.967 32.274 118.781 32.12 119.661 32.12C121.083 32.12 122.183 32.5087 122.961 33.286C123.738 34.0487 124.127 35.1487 124.127 36.586C124.127 36.7913 124.083 36.916 123.995 36.96C123.921 37.004 123.738 37.026 123.445 37.026H116.207C116.177 37.1433 116.155 37.29 116.141 37.466C116.126 37.6273 116.119 37.8107 116.119 38.016C116.119 38.7787 116.207 39.4753 116.383 40.106C116.573 40.722 116.837 41.25 117.175 41.69C117.527 42.13 117.937 42.4747 118.407 42.724C118.891 42.9587 119.426 43.076 120.013 43.076C120.629 43.076 121.201 42.944 121.729 42.68C122.257 42.4013 122.799 41.954 123.357 41.338L124.039 41.954ZM120.409 36.014C120.702 36.014 120.937 36.0067 121.113 35.992C121.289 35.9773 121.421 35.948 121.509 35.904C121.597 35.86 121.655 35.8013 121.685 35.728C121.714 35.64 121.729 35.53 121.729 35.398C121.729 34.7233 121.509 34.188 121.069 33.792C120.643 33.3813 120.057 33.176 119.309 33.176C117.725 33.176 116.742 34.122 116.361 36.014H120.409ZM127.058 44H126.574V40.216H127.124C127.696 42.284 128.737 43.318 130.248 43.318C130.835 43.318 131.297 43.1787 131.634 42.9C131.986 42.6067 132.162 42.1667 132.162 41.58C132.162 41.36 132.125 41.1767 132.052 41.03C131.993 40.8687 131.869 40.7073 131.678 40.546C131.502 40.37 131.245 40.172 130.908 39.952C130.585 39.732 130.153 39.4533 129.61 39.116C129.111 38.808 128.679 38.522 128.312 38.258C127.945 37.994 127.637 37.73 127.388 37.466C127.139 37.1873 126.948 36.894 126.816 36.586C126.699 36.278 126.64 35.9187 126.64 35.508C126.64 35.0093 126.721 34.5547 126.882 34.144C127.058 33.7187 127.293 33.3593 127.586 33.066C127.879 32.7727 128.224 32.5453 128.62 32.384C129.016 32.208 129.449 32.12 129.918 32.12C130.314 32.12 130.725 32.186 131.15 32.318C131.575 32.4353 131.949 32.5967 132.272 32.802L132.712 32.34H133.13V35.508H132.558C132.235 34.6133 131.883 33.9753 131.502 33.594C131.121 33.2127 130.651 33.022 130.094 33.022C129.595 33.022 129.192 33.154 128.884 33.418C128.591 33.682 128.444 34.0487 128.444 34.518C128.444 34.7673 128.481 34.9873 128.554 35.178C128.642 35.354 128.774 35.53 128.95 35.706C129.126 35.882 129.346 36.0653 129.61 36.256C129.889 36.432 130.219 36.6373 130.6 36.872C131.231 37.268 131.766 37.62 132.206 37.928C132.661 38.236 133.027 38.544 133.306 38.852C133.585 39.1453 133.79 39.4533 133.922 39.776C134.054 40.0987 134.12 40.4653 134.12 40.876C134.12 41.9173 133.783 42.7387 133.108 43.34C132.433 43.9267 131.546 44.22 130.446 44.22C129.302 44.22 128.319 43.89 127.498 43.23L127.058 44ZM140.172 40.502C140.172 41.074 140.194 41.536 140.238 41.888C140.297 42.2253 140.4 42.4967 140.546 42.702C140.693 42.8927 140.898 43.0247 141.162 43.098C141.426 43.1713 141.778 43.2153 142.218 43.23V44H135.904V43.23C136.344 43.2153 136.704 43.1713 136.982 43.098C137.261 43.01 137.474 42.878 137.62 42.702C137.782 42.5113 137.884 42.2547 137.928 41.932C137.987 41.5947 138.016 41.1693 138.016 40.656V37.84C138.016 36.9893 138.002 36.2927 137.972 35.75C137.958 35.1927 137.921 34.8113 137.862 34.606C137.789 34.2687 137.62 34.0413 137.356 33.924C137.092 33.792 136.594 33.726 135.86 33.726V32.956L140.172 32.12V40.502ZM137.642 27.654C137.642 27.2727 137.774 26.95 138.038 26.686C138.302 26.422 138.625 26.29 139.006 26.29C139.388 26.29 139.71 26.422 139.974 26.686C140.238 26.95 140.37 27.2727 140.37 27.654C140.37 28.0353 140.238 28.358 139.974 28.622C139.71 28.886 139.388 29.018 139.006 29.018C138.625 29.018 138.302 28.886 138.038 28.622C137.774 28.358 137.642 28.0353 137.642 27.654ZM148.682 39.27C149.298 39.27 149.775 38.9913 150.112 38.434C150.464 37.8767 150.64 37.092 150.64 36.08C150.64 35.0827 150.464 34.3127 150.112 33.77C149.775 33.2127 149.291 32.934 148.66 32.934C148.03 32.934 147.524 33.2127 147.142 33.77C146.776 34.3273 146.592 35.09 146.592 36.058C146.592 37.026 146.783 37.8033 147.164 38.39C147.546 38.9767 148.052 39.27 148.682 39.27ZM147.472 41.844C147.824 41.8733 148.147 41.9027 148.44 41.932C148.734 41.9613 149.02 41.9907 149.298 42.02C149.592 42.0493 149.878 42.086 150.156 42.13C150.45 42.174 150.765 42.218 151.102 42.262C152.158 42.4233 153.002 42.834 153.632 43.494C154.278 44.1393 154.6 44.9533 154.6 45.936C154.6 47.168 154.109 48.1067 153.126 48.752C152.158 49.3973 150.75 49.72 148.902 49.72C148.081 49.72 147.326 49.6467 146.636 49.5C145.962 49.3533 145.382 49.1407 144.898 48.862C144.414 48.598 144.033 48.2753 143.754 47.894C143.49 47.5127 143.358 47.0947 143.358 46.64C143.358 46.332 143.41 46.046 143.512 45.782C143.615 45.518 143.754 45.2833 143.93 45.078C144.106 44.8873 144.312 44.7333 144.546 44.616C144.796 44.4987 145.052 44.44 145.316 44.44C145.815 44.44 146.262 44.594 146.658 44.902C146.262 44.99 145.94 45.2027 145.69 45.54C145.441 45.892 145.316 46.288 145.316 46.728C145.316 47.3733 145.632 47.872 146.262 48.224C146.908 48.576 147.817 48.752 148.99 48.752C151.498 48.752 152.752 47.982 152.752 46.442C152.752 45.8553 152.554 45.364 152.158 44.968C151.762 44.5867 151.293 44.3593 150.75 44.286C150.398 44.242 150.032 44.1907 149.65 44.132C149.284 44.088 148.917 44.044 148.55 44C148.198 43.956 147.868 43.9193 147.56 43.89C147.252 43.8607 147.003 43.8313 146.812 43.802C145.991 43.714 145.368 43.494 144.942 43.142C144.517 42.79 144.304 42.306 144.304 41.69C144.304 41.1767 144.517 40.722 144.942 40.326C145.368 39.93 145.903 39.6807 146.548 39.578V39.49C146.226 39.358 145.925 39.1747 145.646 38.94C145.368 38.6907 145.126 38.412 144.92 38.104C144.73 37.796 144.576 37.466 144.458 37.114C144.341 36.7473 144.282 36.3733 144.282 35.992C144.282 35.4347 144.385 34.9213 144.59 34.452C144.81 33.9827 145.111 33.5793 145.492 33.242C145.888 32.89 146.35 32.6187 146.878 32.428C147.406 32.2227 147.986 32.12 148.616 32.12C149.262 32.12 149.87 32.2227 150.442 32.428C151.014 32.6187 151.506 32.9047 151.916 33.286C152.415 32.8753 152.855 32.582 153.236 32.406C153.618 32.2153 153.977 32.12 154.314 32.12C154.842 32.12 155.26 32.2447 155.568 32.494C155.891 32.7287 156.052 33.0513 156.052 33.462C156.052 33.7113 155.964 33.9093 155.788 34.056C155.627 34.2027 155.422 34.276 155.172 34.276C154.967 34.276 154.798 34.2393 154.666 34.166C154.534 34.0927 154.41 34.0193 154.292 33.946C154.19 33.858 154.08 33.7773 153.962 33.704C153.845 33.6307 153.698 33.594 153.522 33.594C153.17 33.594 152.811 33.7187 152.444 33.968C152.796 34.5107 152.972 35.1927 152.972 36.014C152.972 37.2607 152.584 38.2433 151.806 38.962C151.029 39.666 149.863 40.0767 148.308 40.194C147.414 40.2673 146.79 40.3627 146.438 40.48C146.086 40.5973 145.91 40.81 145.91 41.118C145.91 41.3527 146.042 41.5287 146.306 41.646C146.57 41.7487 146.959 41.8147 147.472 41.844ZM160.576 40.546C160.576 41.1473 160.591 41.624 160.62 41.976C160.65 42.3133 160.723 42.5773 160.84 42.768C160.972 42.944 161.156 43.0613 161.39 43.12C161.64 43.1787 161.977 43.2227 162.402 43.252V44H156.638V43.252C157.049 43.2227 157.372 43.1787 157.606 43.12C157.856 43.0613 158.046 42.944 158.178 42.768C158.31 42.592 158.391 42.3427 158.42 42.02C158.464 41.6973 158.486 41.2573 158.486 40.7V37.774C158.486 36.0287 158.442 34.9653 158.354 34.584C158.31 34.3933 158.252 34.2393 158.178 34.122C158.12 33.99 158.024 33.8947 157.892 33.836C157.76 33.7627 157.592 33.7187 157.386 33.704C157.181 33.6747 156.917 33.66 156.594 33.66V32.956L160.114 32.12L160.378 34.298H160.466C161.024 33.6087 161.676 33.0733 162.424 32.692C163.172 32.3107 163.986 32.12 164.866 32.12C165.541 32.12 166.157 32.23 166.714 32.45C167.272 32.67 167.697 32.9707 167.99 33.352C168.24 33.6893 168.416 34.1293 168.518 34.672C168.621 35.2 168.672 35.9333 168.672 36.872V40.546C168.672 41.1473 168.687 41.624 168.716 41.976C168.76 42.3133 168.841 42.5773 168.958 42.768C169.076 42.944 169.252 43.0613 169.486 43.12C169.736 43.1787 170.058 43.2227 170.454 43.252V44H164.756V43.252C165.167 43.2373 165.49 43.2007 165.724 43.142C165.974 43.0687 166.157 42.944 166.274 42.768C166.406 42.592 166.487 42.3427 166.516 42.02C166.56 41.6827 166.582 41.2427 166.582 40.7V37.796C166.582 36.96 166.538 36.256 166.45 35.684C166.362 35.112 166.216 34.65 166.01 34.298C165.82 33.946 165.563 33.6967 165.24 33.55C164.918 33.3887 164.529 33.308 164.074 33.308C163.414 33.308 162.806 33.484 162.248 33.836C161.706 34.1733 161.28 34.6427 160.972 35.244C160.899 35.3907 160.833 35.53 160.774 35.662C160.73 35.794 160.694 35.948 160.664 36.124C160.635 36.3 160.613 36.5053 160.598 36.74C160.584 36.96 160.576 37.246 160.576 37.598V40.546ZM182.476 41.954C181.23 43.4647 179.682 44.22 177.834 44.22C176.969 44.22 176.184 44.0807 175.48 43.802C174.776 43.5087 174.168 43.1053 173.654 42.592C173.156 42.064 172.767 41.4407 172.488 40.722C172.21 39.9887 172.07 39.182 172.07 38.302C172.07 37.4073 172.217 36.5787 172.51 35.816C172.804 35.0533 173.214 34.4007 173.742 33.858C174.285 33.3153 174.923 32.89 175.656 32.582C176.404 32.274 177.218 32.12 178.098 32.12C179.521 32.12 180.621 32.5087 181.398 33.286C182.176 34.0487 182.564 35.1487 182.564 36.586C182.564 36.7913 182.52 36.916 182.432 36.96C182.359 37.004 182.176 37.026 181.882 37.026H174.644C174.615 37.1433 174.593 37.29 174.578 37.466C174.564 37.6273 174.556 37.8107 174.556 38.016C174.556 38.7787 174.644 39.4753 174.82 40.106C175.011 40.722 175.275 41.25 175.612 41.69C175.964 42.13 176.375 42.4747 176.844 42.724C177.328 42.9587 177.864 43.076 178.45 43.076C179.066 43.076 179.638 42.944 180.166 42.68C180.694 42.4013 181.237 41.954 181.794 41.338L182.476 41.954ZM178.846 36.014C179.14 36.014 179.374 36.0067 179.55 35.992C179.726 35.9773 179.858 35.948 179.946 35.904C180.034 35.86 180.093 35.8013 180.122 35.728C180.152 35.64 180.166 35.53 180.166 35.398C180.166 34.7233 179.946 34.188 179.506 33.792C179.081 33.3813 178.494 33.176 177.746 33.176C176.162 33.176 175.18 34.122 174.798 36.014H178.846ZM188.488 40.502C188.488 41.1033 188.502 41.58 188.532 41.932C188.561 42.284 188.634 42.5553 188.752 42.746C188.884 42.922 189.067 43.0393 189.302 43.098C189.536 43.1567 189.866 43.2007 190.292 43.23V44H184.44V43.23C184.865 43.2153 185.202 43.1787 185.452 43.12C185.701 43.0467 185.892 42.922 186.024 42.746C186.156 42.57 186.236 42.3207 186.266 41.998C186.31 41.6607 186.332 41.2133 186.332 40.656V38.082C186.332 37.0847 186.317 36.3073 186.288 35.75C186.273 35.1927 186.2 34.782 186.068 34.518C185.95 34.254 185.76 34.1 185.496 34.056C185.232 33.9973 184.865 33.968 184.396 33.968V33.198L188.246 32.362L188.554 35.09H188.642C188.832 34.65 189.067 34.2467 189.346 33.88C189.639 33.5133 189.954 33.2053 190.292 32.956C190.629 32.692 190.981 32.4867 191.348 32.34C191.714 32.1933 192.088 32.12 192.47 32.12C192.939 32.12 193.306 32.2373 193.57 32.472C193.848 32.692 193.988 32.9927 193.988 33.374C193.988 33.726 193.878 34.0047 193.658 34.21C193.438 34.4007 193.122 34.496 192.712 34.496C192.477 34.496 192.279 34.4667 192.118 34.408C191.956 34.3493 191.81 34.2907 191.678 34.232C191.56 34.1587 191.443 34.0927 191.326 34.034C191.223 33.9753 191.106 33.946 190.974 33.946C190.578 33.946 190.182 34.2027 189.786 34.716C189.39 35.2147 189.082 35.8527 188.862 36.63C188.744 37.0553 188.649 37.5393 188.576 38.082C188.517 38.61 188.488 39.1673 188.488 39.754V40.502ZM195.98 44H195.496V40.216H196.046C196.618 42.284 197.659 43.318 199.17 43.318C199.757 43.318 200.219 43.1787 200.556 42.9C200.908 42.6067 201.084 42.1667 201.084 41.58C201.084 41.36 201.047 41.1767 200.974 41.03C200.915 40.8687 200.791 40.7073 200.6 40.546C200.424 40.37 200.167 40.172 199.83 39.952C199.507 39.732 199.075 39.4533 198.532 39.116C198.033 38.808 197.601 38.522 197.234 38.258C196.867 37.994 196.559 37.73 196.31 37.466C196.061 37.1873 195.87 36.894 195.738 36.586C195.621 36.278 195.562 35.9187 195.562 35.508C195.562 35.0093 195.643 34.5547 195.804 34.144C195.98 33.7187 196.215 33.3593 196.508 33.066C196.801 32.7727 197.146 32.5453 197.542 32.384C197.938 32.208 198.371 32.12 198.84 32.12C199.236 32.12 199.647 32.186 200.072 32.318C200.497 32.4353 200.871 32.5967 201.194 32.802L201.634 32.34H202.052V35.508H201.48C201.157 34.6133 200.805 33.9753 200.424 33.594C200.043 33.2127 199.573 33.022 199.016 33.022C198.517 33.022 198.114 33.154 197.806 33.418C197.513 33.682 197.366 34.0487 197.366 34.518C197.366 34.7673 197.403 34.9873 197.476 35.178C197.564 35.354 197.696 35.53 197.872 35.706C198.048 35.882 198.268 36.0653 198.532 36.256C198.811 36.432 199.141 36.6373 199.522 36.872C200.153 37.268 200.688 37.62 201.128 37.928C201.583 38.236 201.949 38.544 202.228 38.852C202.507 39.1453 202.712 39.4533 202.844 39.776C202.976 40.0987 203.042 40.4653 203.042 40.876C203.042 41.9173 202.705 42.7387 202.03 43.34C201.355 43.9267 200.468 44.22 199.368 44.22C198.224 44.22 197.241 43.89 196.42 43.23L195.98 44Z" fill="white"/>
</svg>
